<svg width="19" height="19" viewBox="0 0 19 19" fill="none" xmlns="http://www.w3.org/2000/svg">
<path fill-rule="evenodd" clip-rule="evenodd" d="M7.66835 7.39658H10.5239V8.81899C10.9353 8.00092 11.9902 7.26588 13.5748 7.26588C16.6126 7.26588 17.3338 8.89434 17.3338 11.8822V17.4157H14.2583V12.5626C14.2583 10.8611 13.847 9.90156 12.7998 9.90156C11.3474 9.90156 10.7438 10.9357 10.7438 12.5619V17.4157H7.66835V7.39658ZM2.39468 17.285H5.47016V7.26588H2.39468V17.285ZM5.91072 3.99895C5.91083 4.25673 5.85971 4.51196 5.76032 4.74982C5.66093 4.98767 5.51525 5.20339 5.33176 5.38445C4.95993 5.75399 4.45664 5.96084 3.93242 5.95957C3.40912 5.95921 2.90698 5.75289 2.53461 5.38522C2.35178 5.20355 2.2066 4.98758 2.10738 4.7497C2.00817 4.51181 1.95687 4.25669 1.95642 3.99895C1.95642 3.47842 2.16402 2.9802 2.53538 2.61268C2.90742 2.24451 3.40977 2.0381 3.93319 2.03833C4.45755 2.03833 4.96039 2.24516 5.33176 2.61268C5.70235 2.9802 5.91072 3.47842 5.91072 3.99895Z" fill="white"/>
</svg>
