<svg xmlns="http://www.w3.org/2000/svg" width="122.667" height="122.667" version="1.0" viewBox="0 0 92 92">
    <path d="M1 1.5C-1.1 4 1 5 8.6 5c6.8 0 7.5.2 8.4 2.2 1.1 2.6 9 38.2 9 40.5 0 .8-.9 2.6-2 4-3.9 5-1.3 11.7 4.9 12.9l2.8.6-2.3 2.4c-3 2.9-3 6.5-.1 10 3.3 3.7 8.1 3.7 11.4 0 3-3.5 2.9-7.1-.1-10.1l-2.4-2.4 15.1-.3c8.4-.2 15.6-.1 16 .1.5.1-.1.9-1.1 1.7-2.9 2-3.8 6.9-1.7 10C71 83.5 81 80.3 81 71.9c0-1.1-1.1-3.1-2.5-4.4-1.4-1.5-1.9-2.5-1.1-2.5.8 0 1.9-.7 2.6-1.5 1-1.2 1-1.8 0-3s-5.6-1.5-26.9-1.7c-24.8-.3-25.6-.4-25.6-2.3s.8-2 25.4-2.3c22-.2 25.7-.5 27.3-1.9 1-.9 1.8-2.2 1.8-2.9 0-1 3.5-13.6 9.7-34.8.3-1 0-2.2-.8-2.7S74.6 11 56.4 11H23.2l-.7-3.7C21.2.2 20.9 0 11.1 0 4.6 0 1.9.4 1 1.5zm84.2 15c.5.5-7.6 29.7-8.8 31.6-.3.5-10.3.9-22.4.9-24.8 0-22.1 1.2-24.7-10.5-.8-3.9-2.1-9.9-2.9-13.5-.8-3.6-1.4-7.1-1.4-7.7 0-1 6.6-1.3 29.8-1.3 16.4 0 30.1.2 30.4.5zm-47.7 56c0 2.1-3.1 3.3-4.6 1.8-.5-.5-.7-1.7-.3-2.7.9-2.4 4.9-1.7 4.9.9zm38.2-.9c.3.8-.1 2.2-.9 3-1.2 1.2-1.7 1.2-3.3 0-1.6-1.2-1.7-1.6-.6-3 1.7-2 4-2.1 4.8 0z"/>
</svg>