<svg aria-hidden="true" style="position: absolute; width: 0; height: 0; overflow: hidden;" version="1.1" xmlns="http://www.w3.org/2000/svg" xmlns:xlink="http://www.w3.org/1999/xlink">
<defs>
<symbol id="icon-bag" viewBox="0 0 32 32">
<path stroke-linejoin="round" stroke-linecap="round" stroke-miterlimit="4" stroke-width="2.0800" d="M10.667 13.333h-4l-2.667 14.667h24l-2.667-14.667h-4M10.667 13.333v-4c0-2.945 2.388-5.333 5.333-5.333v0 0c2.945 0 5.333 2.388 5.333 5.333v0 4M10.667 13.333h10.666M10.667 13.333v4M21.333 13.333v4"></path>
</symbol>
<symbol id="icon-eye" viewBox="0 0 32 32">
<path stroke-linejoin="round" stroke-linecap="round" stroke-miterlimit="4" stroke-width="2.4" d="M16 5.666c-10 0-14 10.336-14 10.336s4 10.331 14 10.331 14-10.333 14-10.333-4-10.334-14-10.334v0z"></path>
<path stroke-linejoin="round" stroke-linecap="round" stroke-miterlimit="4" stroke-width="2.4" d="M16 21c2.761 0 5-2.239 5-5s-2.239-5-5-5v0c-2.761 0-5 2.239-5 5s2.239 5 5 5v0 0z"></path>
</symbol>
<symbol id="icon-heart" viewBox="0 0 32 32">
<path   stroke-linejoin="miter" stroke-linecap="butt" stroke-miterlimit="4" stroke-width="2.4" d="M16 28.072c-26.667-14.739-8-30.739 0-20.621 8-10.118 26.667 5.882 0 20.621z"></path>
</symbol>
</defs>
</svg>
